# xmcd
#
# Track frame offsets: 
#        150
#        14180
#        33582
#        57470
#        73580
#        88018
#        105335
#        118841
#        173166
#
# Disc length: 2492 seconds
#
# Revision: 0
# Processed by: cddbd v1.5.2PL0 Copyright (c) Steve Scherf et al.
# Submitted via: ExactAudioCopy v1.0b4
#
DISCID=7c09ba09
DTITLE=Canned Heat - Boogie (LP)
DYEAR=1978
DGENRE=Blues
TTITLE0=Evil Woman
TTITLE1=My Crime
TTITLE2=On The Road Again
TTITLE3=World In A Jug
TTITLE4=Turpentine Moan
TTITLE5=Amphetamine Annie
TTITLE6=An Owl Song
TTITLE7=Fried Hockey Boogie
TTITLE8=Whiskey Headed Woman
EXTD=
EXTT0=
EXTT1=
EXTT2=
EXTT3=
EXTT4=
EXTT5=
EXTT6=
EXTT7=
EXTT8=
PLAYORDER=
